SRRun01_grf
version=1
nRows=34
nColumns=19
inDegrees=no
endheader
time	ground_force_r_vx	ground_force_r_vy	ground_force_r_vz	ground_force_r_px	ground_force_r_py	ground_force_r_pz	ground_force_r_mx	ground_force_r_my	ground_force_r_mz	ground_force_l_vx	ground_force_l_vy	ground_force_l_vz	ground_force_l_px	ground_force_l_py	ground_force_l_pz	ground_force_l_mx	ground_force_l_my	ground_force_l_mz
    139.99600000	     64.51725731	    986.70714343	     -6.54447676	      1.04357749	      0.00000000	     -0.20312284	      0.00001014	      2.08539787	      0.00008678	      0.00000000	      0.00000000	      0.00000000	      0.00000000	      0.00000000	      0.00000000	      0.00000000	      0.00000000	      0.00000000
    139.99700000	     73.82391538	    976.89464963	    -13.94279109	      1.04142002	      0.00000000	     -0.20396113	      0.00001020	     -3.72925137	      0.00007898	      0.00000000	      0.00000000	      0.00000000	      0.00000000	      0.00000000	      0.00000000	      0.00000000	      0.00000000	      0.00000000
    139.99800000	     82.28038860	    966.80665804	    -21.47532934	      1.03934742	      0.00000000	     -0.20473715	      0.00001021	     -8.98377072	      0.00007086	      0.00000000	      0.00000000	      0.00000000	      0.00000000	      0.00000000	      0.00000000	      0.00000000	      0.00000000	      0.00000000
    139.99900000	     89.51302400	    956.48234916	    -28.98514754	      1.03735841	      0.00000000	     -0.20543304	      0.00001020	    -13.39432354	      0.00006289	      0.00000000	      0.00000000	      0.00000000	      0.00000000	      0.00000000	      0.00000000	      0.00000000	      0.00000000	      0.00000000
    140.00000000	     95.24067683	    945.93427369	    -36.28687183	      1.03543671	      0.00000000	     -0.20603334	      0.00001019	    -16.72721027	      0.00005548	      0.00000000	      0.00000000	      0.00000000	      0.00000000	      0.00000000	      0.00000000	      0.00000000	      0.00000000	      0.00000000
    140.00100000	     99.30227672	    935.15100509	    -43.16843778	      1.03355108	      0.00000000	     -0.20652541	      0.00001018	    -18.81965343	      0.00004896	      0.00000000	      0.00000000	      0.00000000	      0.00000000	      0.00000000	      0.00000000	      0.00000000	      0.00000000	      0.00000000
    140.00200000	    101.67286639	    924.10297375	    -49.39700163	      1.03165634	      0.00000000	     -0.20689992	      0.00001018	    -19.59434824	      0.00004355	      0.00000000	      0.00000000	      0.00000000	      0.00000000	      0.00000000	      0.00000000	      0.00000000	      0.00000000	      0.00000000
    140.00300000	    102.46602046	    912.75062017	    -54.72915285	      1.02969576	      0.00000000	     -0.20715141	      0.00001019	    -19.06643271	      0.00003937	      0.00000000	      0.00000000	      0.00000000	      0.00000000	      0.00000000	      0.00000000	      0.00000000	      0.00000000	      0.00000000
    140.00400000	    101.92218547	    901.05343994	    -58.92470569	      1.02760493	      0.00000000	     -0.20727868	      0.00001018	    -17.34234668	      0.00003640	      0.00000000	      0.00000000	      0.00000000	      0.00000000	      0.00000000	      0.00000000	      0.00000000	      0.00000000	      0.00000000
    140.00500000	    100.38412703	    888.97841001	    -61.76283253	      1.02531747	      0.00000000	     -0.20728488	      0.00001015	    -14.61082712	      0.00003454	      0.00000000	      0.00000000	      0.00000000	      0.00000000	      0.00000000	      0.00000000	      0.00000000	      0.00000000	      0.00000000
    140.00600000	     98.26211811	    876.50671946	    -63.05922345	      1.02277215	      0.00000000	     -0.20717697	      0.00001008	    -11.12703779	      0.00003361	      0.00000000	      0.00000000	      0.00000000	      0.00000000	      0.00000000	      0.00000000	      0.00000000	      0.00000000	      0.00000000
    140.00700000	     95.99264580	    863.63829767	    -62.68301697	      1.01992129	      0.00000000	     -0.20696520	      0.00000995	     -7.19146524	      0.00003340	      0.00000000	      0.00000000	      0.00000000	      0.00000000	      0.00000000	      0.00000000	      0.00000000	      0.00000000	      0.00000000
    140.00800000	     93.99513626	    850.39399885	    -60.57214964	      1.01673915	      0.00000000	     -0.20666249	      0.00000976	     -3.12559382	      0.00003366	      0.00000000	      0.00000000	      0.00000000	      0.00000000	      0.00000000	      0.00000000	      0.00000000	      0.00000000	      0.00000000
    140.00900000	     92.63136363	    836.81548085	    -56.74557622	      1.01322893	      0.00000000	     -0.20628409	      0.00000949	      0.75349320	      0.00003416	      0.00000000	      0.00000000	      0.00000000	      0.00000000	      0.00000000	      0.00000000	      0.00000000	      0.00000000	      0.00000000
    140.01000000	     92.17179613	    822.96298411	    -51.31082403	      1.00942678	      0.00000000	     -0.20584727	      0.00000914	      4.15747425	      0.00003472	      0.00000000	      0.00000000	      0.00000000	      0.00000000	      0.00000000	      0.00000000	      0.00000000	      0.00000000	      0.00000000
    140.01100000	     92.77226959	    808.91146897	    -44.46575624	      1.00540169	      0.00000000	     -0.20537089	      0.00000872	      6.84820707	      0.00003516	      0.00000000	      0.00000000	      0.00000000	      0.00000000	      0.00000000	      0.00000000	      0.00000000	      0.00000000	      0.00000000
    140.01200000	     94.46322129	    794.74583478	    -36.49404276	      1.00125073	      0.00000000	     -0.20487484	      0.00000823	      8.65466927	      0.00003536	      0.00000000	      0.00000000	      0.00000000	      0.00000000	      0.00000000	      0.00000000	      0.00000000	      0.00000000	      0.00000000
    140.01300000	     97.15235289	    780.55593770	    -27.75429321	      0.99709022	      0.00000000	     -0.20437949	      0.00000769	      9.48428407	      0.00003526	      0.00000000	      0.00000000	      0.00000000	      0.00000000	      0.00000000	      0.00000000	      0.00000000	      0.00000000	      0.00000000
    140.01400000	    100.64009951	    766.43175518	    -18.66304138	      0.99304381	      0.00000000	     -0.20390511	      0.00000713	      9.32785682	      0.00003483	      0.00000000	      0.00000000	      0.00000000	      0.00000000	      0.00000000	      0.00000000	      0.00000000	      0.00000000	      0.00000000
    140.01500000	    104.64584886	    752.45864812	     -9.67213707	      0.98922938	      0.00000000	     -0.20347131	      0.00000658	      8.25779187	      0.00003410	      0.00000000	      0.00000000	      0.00000000	      0.00000000	      0.00000000	      0.00000000	      0.00000000	      0.00000000	      0.00000000
    140.01600000	    108.84173738	    738.71258378	     -1.24174419	      0.98574629	      0.00000000	     -0.20309643	      0.00000606	      6.41976092	      0.00003311	      0.00000000	      0.00000000	      0.00000000	      0.00000000	      0.00000000	      0.00000000	      0.00000000	      0.00000000	      0.00000000
    140.01700000	    112.89018265	    725.25536340	      6.18917854	      0.98266509	      0.00000000	     -0.20279667	      0.00000560	      4.01845375	      0.00003196	      0.00000000	      0.00000000	      0.00000000	      0.00000000	      0.00000000	      0.00000000	      0.00000000	      0.00000000	      0.00000000
    140.01800000	    116.48104651	    712.13014689	     12.23257390	      0.98002077	      0.00000000	     -0.20258510	      0.00000523	      1.29851264	      0.00003072	      0.00000000	      0.00000000	      0.00000000	      0.00000000	      0.00000000	      0.00000000	      0.00000000	      0.00000000	      0.00000000
    140.01900000	    119.36441386	    699.35778811	     16.57865979	      0.97781040	      0.00000000	     -0.20247079	      0.00000496	     -1.47774873	      0.00002950	      0.00000000	      0.00000000	      0.00000000	      0.00000000	      0.00000000	      0.00000000	      0.00000000	      0.00000000	      0.00000000
    140.02000000	    121.37545720	    686.93456442	     19.01864932	      0.97599488	      0.00000000	     -0.20245815	      0.00000479	     -4.05386966	      0.00002836	      0.00000000	      0.00000000	      0.00000000	      0.00000000	      0.00000000	      0.00000000	      0.00000000	      0.00000000	      0.00000000
    140.02100000	    122.44876597	    674.83173367	     19.46092306	      0.97450409	      0.00000000	     -0.20254677	      0.00000473	     -6.20191207	      0.00002739	      0.00000000	      0.00000000	      0.00000000	      0.00000000	      0.00000000	      0.00000000	      0.00000000	      0.00000000	      0.00000000
    140.02200000	    122.62079610	    662.99712241	     17.93931629	      0.97324461	      0.00000000	     -0.20273148	      0.00000476	     -7.74225925	      0.00002662	      0.00000000	      0.00000000	      0.00000000	      0.00000000	      0.00000000	      0.00000000	      0.00000000	      0.00000000	      0.00000000
    140.02300000	    122.02059979	    651.35876614	     14.61275370	      0.97210845	      0.00000000	     -0.20300268	      0.00000487	     -8.55877311	      0.00002606	      0.00000000	      0.00000000	      0.00000000	      0.00000000	      0.00000000	      0.00000000	      0.00000000	      0.00000000	      0.00000000
    140.02400000	    120.85045326	    639.83046716	      9.75603694	      0.97098195	      0.00000000	     -0.20334655	      0.00000504	     -8.60793319	      0.00002573	      0.00000000	      0.00000000	      0.00000000	      0.00000000	      0.00000000	      0.00000000	      0.00000000	      0.00000000	      0.00000000
    140.02500000	    119.35909629	    628.31896007	      3.74222504	      0.96975386	      0.00000000	     -0.20374550	      0.00000524	     -7.92109720	      0.00002558	      0.00000000	      0.00000000	      0.00000000	      0.00000000	      0.00000000	      0.00000000	      0.00000000	      0.00000000	      0.00000000
    140.02600000	    117.81098090	    616.73214925	     -2.98221966	      0.96832256	      0.00000000	     -0.20417869	      0.00000545	     -6.59965137	      0.00002559	      0.00000000	      0.00000000	      0.00000000	      0.00000000	      0.00000000	      0.00000000	      0.00000000	      0.00000000	      0.00000000
    140.02700000	    116.45521814	    604.98759358	     -9.92763105	      0.96660269	      0.00000000	     -0.20462286	      0.00000565	     -4.80349745	      0.00002571	      0.00000000	      0.00000000	      0.00000000	      0.00000000	      0.00000000	      0.00000000	      0.00000000	      0.00000000	      0.00000000
    140.02800000	    115.49774960	    593.02013588	    -16.59431747	      0.96453121	      0.00000000	     -0.20505321	      0.00000581	     -2.73396357	      0.00002589	      0.00000000	      0.00000000	      0.00000000	      0.00000000	      0.00000000	      0.00000000	      0.00000000	      0.00000000	      0.00000000
    140.02900000	    115.07966899	    580.78752038	    -22.50622188	      0.96207255	      0.00000000	     -0.20544425	      0.00000593	     -0.61281400	      0.00002607	      0.00000000	      0.00000000	      0.00000000	      0.00000000	      0.00000000	      0.00000000	      0.00000000	      0.00000000	      0.00000000
